<mxfile host="Electron" modified="2024-03-20T07:05:28.959Z" agent="Mozilla/5.0 (Macintosh; Intel Mac OS X 10_15_7) AppleWebKit/537.36 (KHTML, like Gecko) draw.io/23.1.5 Chrome/120.0.6099.109 Electron/28.1.0 Safari/537.36" etag="VEz2G6OnLTNaiuLLq3Zv" version="23.1.5" type="device">
  <diagram name="第 1 页" id="yTVloa_3HeFMKkBw-tnv">
    <mxGraphModel dx="1114" dy="854" grid="0" gridSize="10" guides="1" tooltips="1" connect="1" arrows="1" fold="1" page="1" pageScale="1" pageWidth="827" pageHeight="1169" math="0" shadow="0">
      <root>
        <mxCell id="0" />
        <mxCell id="1" parent="0" />
        <mxCell id="tudjGFrZuIMXhf4ye3F7-15" style="edgeStyle=orthogonalEdgeStyle;rounded=0;orthogonalLoop=1;jettySize=auto;html=1;entryX=0.5;entryY=0;entryDx=0;entryDy=0;" edge="1" parent="1" source="tudjGFrZuIMXhf4ye3F7-1" target="tudjGFrZuIMXhf4ye3F7-8">
          <mxGeometry relative="1" as="geometry" />
        </mxCell>
        <mxCell id="tudjGFrZuIMXhf4ye3F7-16" value="&lt;b&gt;查找缓存&lt;/b&gt;" style="edgeLabel;html=1;align=center;verticalAlign=middle;resizable=0;points=[];" vertex="1" connectable="0" parent="tudjGFrZuIMXhf4ye3F7-15">
          <mxGeometry x="-0.1674" relative="1" as="geometry">
            <mxPoint y="1" as="offset" />
          </mxGeometry>
        </mxCell>
        <mxCell id="tudjGFrZuIMXhf4ye3F7-1" value="" style="rounded=0;whiteSpace=wrap;html=1;fillColor=#d5e8d4;strokeColor=#82b366;" vertex="1" parent="1">
          <mxGeometry x="117" y="176" width="270" height="31" as="geometry" />
        </mxCell>
        <mxCell id="tudjGFrZuIMXhf4ye3F7-2" value="s1" style="rounded=0;whiteSpace=wrap;html=1;fillColor=#d5e8d4;strokeColor=#82b366;" vertex="1" parent="1">
          <mxGeometry x="117" y="176" width="53" height="31" as="geometry" />
        </mxCell>
        <mxCell id="tudjGFrZuIMXhf4ye3F7-4" value="`s2`" style="rounded=0;whiteSpace=wrap;html=1;fillColor=#d5e8d4;strokeColor=#82b366;" vertex="1" parent="1">
          <mxGeometry x="170" y="176" width="53" height="31" as="geometry" />
        </mxCell>
        <mxCell id="tudjGFrZuIMXhf4ye3F7-5" value="s3" style="rounded=0;whiteSpace=wrap;html=1;fillColor=#d5e8d4;strokeColor=#82b366;" vertex="1" parent="1">
          <mxGeometry x="223" y="176" width="53" height="31" as="geometry" />
        </mxCell>
        <mxCell id="tudjGFrZuIMXhf4ye3F7-6" value="&lt;font style=&quot;font-size: 14px;&quot;&gt;&lt;b&gt;...&lt;/b&gt;&lt;/font&gt;" style="text;html=1;align=center;verticalAlign=middle;resizable=0;points=[];autosize=1;strokeColor=none;fillColor=none;" vertex="1" parent="1">
          <mxGeometry x="318" y="177" width="30" height="29" as="geometry" />
        </mxCell>
        <mxCell id="tudjGFrZuIMXhf4ye3F7-20" style="edgeStyle=orthogonalEdgeStyle;rounded=0;orthogonalLoop=1;jettySize=auto;html=1;entryX=0.5;entryY=0;entryDx=0;entryDy=0;" edge="1" parent="1" source="tudjGFrZuIMXhf4ye3F7-8" target="tudjGFrZuIMXhf4ye3F7-18">
          <mxGeometry relative="1" as="geometry" />
        </mxCell>
        <mxCell id="tudjGFrZuIMXhf4ye3F7-23" value="&lt;b&gt;缓存未命中&lt;/b&gt;" style="edgeLabel;html=1;align=center;verticalAlign=middle;resizable=0;points=[];" vertex="1" connectable="0" parent="tudjGFrZuIMXhf4ye3F7-20">
          <mxGeometry x="-0.125" y="-2" relative="1" as="geometry">
            <mxPoint as="offset" />
          </mxGeometry>
        </mxCell>
        <mxCell id="tudjGFrZuIMXhf4ye3F7-8" value="LRU 缓存表" style="swimlane;whiteSpace=wrap;html=1;fillColor=#dae8fc;strokeColor=#6c8ebf;" vertex="1" parent="1">
          <mxGeometry x="152" y="297" width="200" height="157" as="geometry" />
        </mxCell>
        <mxCell id="tudjGFrZuIMXhf4ye3F7-11" style="edgeStyle=orthogonalEdgeStyle;rounded=0;orthogonalLoop=1;jettySize=auto;html=1;entryX=0;entryY=0.5;entryDx=0;entryDy=0;" edge="1" parent="tudjGFrZuIMXhf4ye3F7-8" source="tudjGFrZuIMXhf4ye3F7-9" target="tudjGFrZuIMXhf4ye3F7-10">
          <mxGeometry relative="1" as="geometry" />
        </mxCell>
        <mxCell id="tudjGFrZuIMXhf4ye3F7-9" value="s1" style="rounded=0;whiteSpace=wrap;html=1;fillColor=#e1d5e7;strokeColor=#9673a6;" vertex="1" parent="tudjGFrZuIMXhf4ye3F7-8">
          <mxGeometry x="9" y="34" width="53" height="31" as="geometry" />
        </mxCell>
        <mxCell id="tudjGFrZuIMXhf4ye3F7-10" value="s1" style="rounded=0;whiteSpace=wrap;html=1;fillColor=#e1d5e7;strokeColor=#9673a6;" vertex="1" parent="tudjGFrZuIMXhf4ye3F7-8">
          <mxGeometry x="88" y="34" width="53" height="31" as="geometry" />
        </mxCell>
        <mxCell id="tudjGFrZuIMXhf4ye3F7-14" style="edgeStyle=orthogonalEdgeStyle;rounded=0;orthogonalLoop=1;jettySize=auto;html=1;" edge="1" parent="tudjGFrZuIMXhf4ye3F7-8" source="tudjGFrZuIMXhf4ye3F7-12" target="tudjGFrZuIMXhf4ye3F7-13">
          <mxGeometry relative="1" as="geometry" />
        </mxCell>
        <mxCell id="tudjGFrZuIMXhf4ye3F7-12" value="`s2`" style="rounded=0;whiteSpace=wrap;html=1;fillColor=#e1d5e7;strokeColor=#9673a6;" vertex="1" parent="tudjGFrZuIMXhf4ye3F7-8">
          <mxGeometry x="9" y="82" width="53" height="31" as="geometry" />
        </mxCell>
        <mxCell id="tudjGFrZuIMXhf4ye3F7-13" value="s2" style="rounded=0;whiteSpace=wrap;html=1;fillColor=#e1d5e7;strokeColor=#9673a6;" vertex="1" parent="tudjGFrZuIMXhf4ye3F7-8">
          <mxGeometry x="88" y="82" width="53" height="31" as="geometry" />
        </mxCell>
        <mxCell id="tudjGFrZuIMXhf4ye3F7-21" style="edgeStyle=orthogonalEdgeStyle;rounded=0;orthogonalLoop=1;jettySize=auto;html=1;entryX=1;entryY=0.5;entryDx=0;entryDy=0;exitX=1;exitY=0.5;exitDx=0;exitDy=0;" edge="1" parent="1" source="tudjGFrZuIMXhf4ye3F7-18" target="tudjGFrZuIMXhf4ye3F7-8">
          <mxGeometry relative="1" as="geometry">
            <Array as="points">
              <mxPoint x="402" y="558" />
              <mxPoint x="402" y="376" />
            </Array>
          </mxGeometry>
        </mxCell>
        <mxCell id="tudjGFrZuIMXhf4ye3F7-22" value="&lt;b&gt;更新缓存内容&lt;/b&gt;" style="edgeLabel;html=1;align=center;verticalAlign=middle;resizable=0;points=[];" vertex="1" connectable="0" parent="tudjGFrZuIMXhf4ye3F7-21">
          <mxGeometry x="0.1225" y="-2" relative="1" as="geometry">
            <mxPoint as="offset" />
          </mxGeometry>
        </mxCell>
        <mxCell id="tudjGFrZuIMXhf4ye3F7-18" value="序列 ID 校验" style="shape=step;perimeter=stepPerimeter;whiteSpace=wrap;html=1;fixedSize=1;fillColor=#fff2cc;strokeColor=#d6b656;" vertex="1" parent="1">
          <mxGeometry x="192" y="518" width="120" height="80" as="geometry" />
        </mxCell>
      </root>
    </mxGraphModel>
  </diagram>
</mxfile>
